<svg width="13" height="18" viewBox="0 0 13 18" fill="none" xmlns="http://www.w3.org/2000/svg">
<path d="M7.25 1.5C7.25 1.08579 6.91421 0.75 6.5 0.75C6.08579 0.75 5.75 1.08579 5.75 1.5L7.25 1.5ZM5.96967 17.0303C6.26256 17.3232 6.73744 17.3232 7.03033 17.0303L11.8033 12.2574C12.0962 11.9645 12.0962 11.4896 11.8033 11.1967C11.5104 10.9038 11.0355 10.9038 10.7426 11.1967L6.5 15.4393L2.25736 11.1967C1.96447 10.9038 1.48959 10.9038 1.1967 11.1967C0.903806 11.4896 0.903806 11.9645 1.1967 12.2574L5.96967 17.0303ZM5.75 1.5L5.75 16.5L7.25 16.5L7.25 1.5L5.75 1.5Z" fill="black"/>
</svg>
