<svg width="50" height="50" viewBox="0 0 50 50" fill="none" xmlns="http://www.w3.org/2000/svg">
<rect width="50" height="50" rx="10" fill="url(#paint0_linear_61_171)"/>
<path fill-rule="evenodd" clip-rule="evenodd" d="M16.7082 41.1739C19.0546 42.3427 21.7005 43 24.5 43C34.1649 43 42 35.1649 42 25.5C42 15.835 34.1649 8 24.5 8C14.835 8 7 15.835 7 25.5C7 28.2995 7.65733 30.9453 8.82605 33.2919C9.13664 33.9154 9.4813 35.2484 9.30125 35.9213L8.01764 39.1967C7.56516 40.8878 9.11227 42.4347 10.8034 41.9824L14.6989 40.9401C15.3719 40.76 16.0846 40.8634 16.7082 41.1739ZM14.0204 38.4043C15.3922 38.0372 16.7611 38.2679 17.8781 38.824L17.8786 38.8242C19.8696 39.816 22.1157 40.375 24.5 40.375C32.7152 40.375 39.375 33.7152 39.375 25.5C39.375 17.2848 32.7152 10.625 24.5 10.625C16.2848 10.625 9.625 17.2848 9.625 25.5C9.625 27.8842 10.184 30.1303 11.1757 32.1215M14.0204 38.4043L10.811 39.263L11.799 36.742L11.837 36.5998C12.0948 35.6366 11.9352 34.6216 11.8182 34.0562C11.6822 33.3991 11.4558 32.6839 11.1758 32.1216" fill="white"/>
<path fill-rule="evenodd" clip-rule="evenodd" d="M16.1875 22.875C16.1875 22.1501 16.7751 21.5625 17.5 21.5625H31.5C32.2249 21.5625 32.8125 22.1501 32.8125 22.875C32.8125 23.5999 32.2249 24.1875 31.5 24.1875H17.5C16.7751 24.1875 16.1875 23.5999 16.1875 22.875Z" fill="white"/>
<path fill-rule="evenodd" clip-rule="evenodd" d="M16.1875 29C16.1875 28.2751 16.7751 27.6875 17.5 27.6875H27.125C27.8499 27.6875 28.4375 28.2751 28.4375 29C28.4375 29.7249 27.8499 30.3125 27.125 30.3125H17.5C16.7751 30.3125 16.1875 29.7249 16.1875 29Z" fill="white"/>
<defs>
<linearGradient id="paint0_linear_61_171" x1="0" y1="0" x2="58.4212" y2="13.4664" gradientUnits="userSpaceOnUse">
<stop stop-color="#FF2424"/>
<stop offset="1" stop-color="#FFB321"/>
</linearGradient>
</defs>
</svg>
