<?xml version="1.0" standalone="no"?>
<!DOCTYPE svg PUBLIC "-//W3C//DTD SVG 20010904//EN"
 "http://www.w3.org/TR/2001/REC-SVG-20010904/DTD/svg10.dtd">
<svg version="1.0" xmlns="http://www.w3.org/2000/svg"
 width="857.000000pt" height="385.000000pt" viewBox="0 0 857.000000 385.000000"
 preserveAspectRatio="xMidYMid meet">

<g transform="translate(0.000000,385.000000) scale(0.100000,-0.100000)"
fill="#000000" stroke="none">
<path d="M1246 3818 c-71 -42 -99 -145 -57 -214 l19 -31 -100 -16 c-536 -88
-959 -496 -1075 -1037 -25 -120 -25 -400 1 -520 74 -340 279 -646 557 -831 46
-31 92 -65 101 -76 34 -37 48 -90 48 -180 0 -48 5 -105 10 -125 17 -59 69
-120 129 -150 l55 -28 385 0 c413 1 428 2 494 53 18 13 45 48 61 77 26 47 29
66 35 175 8 151 17 166 144 250 120 79 276 235 355 353 155 233 226 463 226
737 1 167 -12 255 -56 395 -149 471 -548 821 -1035 906 l-102 17 21 40 c68
135 -86 281 -216 205z m64 -11 c0 -17 -50 -65 -70 -67 -50 -7 -54 17 -9 54 32
27 79 35 79 13z m-299 -519 c-178 -228 -302 -546 -329 -843 l-7 -80 -236 -3
-236 -2 9 65 c46 339 271 659 582 826 74 40 225 99 254 99 7 0 -10 -28 -37
-62z m408 -42 c206 -244 315 -500 355 -838 l6 -48 -456 0 -456 0 7 68 c31 308
172 622 381 850 53 58 69 70 80 61 8 -6 45 -48 83 -93z m286 69 c314 -116 574
-384 680 -699 24 -72 55 -207 55 -242 0 -12 -39 -14 -234 -14 l-233 0 -7 78
c-26 296 -151 617 -333 855 l-45 58 29 -7 c15 -4 55 -17 88 -29z m731 -1207
c-8 -83 -40 -194 -86 -300 -82 -190 -233 -368 -420 -493 -162 -109 -210 -194
-210 -370 0 -78 -3 -96 -21 -119 l-20 -26 -353 0 c-288 0 -356 3 -372 14 -16
12 -20 31 -25 133 -5 98 -10 129 -31 175 -35 76 -87 130 -188 196 -210 138
-387 371 -458 604 -26 84 -54 227 -46 239 3 5 470 9 1121 9 l1116 0 -7 -62z"/>
<path d="M899 1811 c-57 -57 -33 -117 75 -189 159 -106 318 -136 490 -92 136
35 298 138 309 197 7 35 -15 88 -41 102 -41 22 -82 12 -153 -35 -98 -65 -167
-88 -264 -87 -98 0 -168 24 -254 89 -74 55 -117 59 -162 15z"/>
<path d="M5425 3302 c-6 -4 -33 -36 -60 -72 -27 -36 -104 -120 -171 -186
l-123 -122 32 -98 c39 -120 42 -124 74 -124 50 0 433 416 433 470 0 12 -28 43
-72 80 -71 58 -92 68 -113 52z"/>
<path d="M3440 3272 c-112 -57 -115 -80 -26 -223 92 -148 92 -149 128 -149 31
0 121 49 146 79 26 31 13 69 -65 185 -92 139 -107 147 -183 108z"/>
<path d="M8140 3280 c-223 -26 -517 -48 -805 -60 -220 -10 -252 -13 -265 -29
-23 -26 -134 -755 -120 -782 10 -18 24 -19 323 -19 267 0 316 -2 335 -16 22
-15 22 -19 22 -235 0 -218 0 -220 -24 -244 -31 -31 -79 -39 -181 -32 -74 5
-85 4 -101 -14 -16 -17 -16 -26 -4 -92 7 -39 19 -87 26 -106 l14 -34 174 5
c161 4 177 6 222 29 61 32 109 93 123 159 6 29 11 156 11 293 0 133 4 247 8
253 20 30 55 34 321 34 313 0 291 -8 291 110 0 118 22 110 -291 110 -266 0
-301 4 -321 34 -4 6 -8 61 -8 122 0 143 -1 144 -132 144 -127 0 -126 0 -130
-155 -4 -150 3 -145 -196 -145 -140 0 -143 1 -168 25 -19 19 -24 32 -20 53 3
15 15 83 27 152 12 69 28 132 36 141 11 13 46 17 196 23 409 15 842 51 875 72
28 18 28 36 -3 120 -23 61 -55 106 -74 103 -3 -1 -76 -10 -161 -19z"/>
<path d="M3832 3248 c-19 -19 -17 -727 2 -754 13 -17 30 -19 202 -22 113 -2
194 -8 201 -14 20 -16 16 -65 -7 -88 -19 -19 -33 -20 -234 -20 -118 0 -221 -3
-230 -6 -12 -5 -16 -21 -16 -74 0 -97 5 -100 166 -100 71 0 134 -4 141 -8 11
-7 17 -26 14 -49 -1 -14 -104 -97 -235 -188 -56 -39 -102 -77 -104 -85 -3 -18
115 -160 133 -160 22 0 115 78 211 176 96 100 118 110 154 74 18 -18 20 -33
20 -158 0 -171 1 -172 112 -172 108 0 108 0 108 193 0 128 3 158 16 171 8 9
20 16 26 16 6 0 50 -38 99 -84 98 -94 234 -188 263 -184 21 3 116 157 116 188
0 12 -35 35 -112 73 -118 59 -208 126 -208 156 0 35 21 41 145 41 147 0 156 5
163 82 8 101 16 98 -243 98 -212 0 -226 1 -245 20 -25 25 -26 62 -2 83 16 15
45 17 193 17 142 0 179 3 197 16 l22 15 0 368 c0 272 -3 370 -12 379 -17 17
-1039 17 -1056 0z m406 -180 c19 -19 14 -76 -8 -98 -26 -26 -133 -28 -168 -4
-26 18 -30 74 -6 98 19 20 163 23 182 4z m430 0 c17 -17 15 -78 -5 -100 -24
-27 -145 -26 -173 2 -22 22 -27 79 -8 98 16 16 170 16 186 0z m-430 -300 c19
-19 14 -76 -8 -98 -16 -16 -33 -20 -87 -20 -77 0 -103 16 -103 63 0 53 23 67
110 67 46 0 81 -5 88 -12z m426 -4 c21 -20 20 -73 -1 -96 -13 -14 -31 -18 -89
-18 -64 0 -75 3 -88 22 -19 27 -21 79 -4 96 19 19 163 16 182 -4z"/>
<path d="M5695 3247 c-3 -7 -4 -156 -3 -332 l3 -320 485 -3 c447 -2 486 -1
498 15 16 22 18 604 2 634 -10 18 -26 19 -496 19 -380 0 -486 -3 -489 -13z
m743 -163 c27 -19 29 -60 3 -74 -12 -6 -113 -10 -260 -10 -204 0 -242 2 -255
16 -22 22 -20 50 6 68 19 13 61 16 253 16 192 0 234 -3 253 -16z m3 -244 c26
-14 24 -55 -3 -74 -19 -13 -61 -16 -253 -16 -192 0 -234 3 -253 16 -26 18 -28
46 -6 68 13 14 51 16 255 16 147 0 248 -4 260 -10z"/>
<path d="M5406 2740 c-80 -114 -192 -244 -280 -325 l-75 -71 28 -106 c16 -59
32 -112 36 -117 8 -14 52 -14 60 -1 9 14 52 12 62 -2 4 -7 10 -125 13 -263 l5
-250 99 -3 c73 -2 102 1 108 10 4 7 8 193 8 413 l0 400 85 118 c81 114 94 139
77 162 -21 31 -132 115 -149 115 -15 0 -38 -23 -77 -80z"/>
<path d="M3305 2733 c-35 -9 -45 -33 -45 -113 0 -94 12 -110 86 -110 28 0 55
-5 62 -12 9 -9 12 -87 12 -290 0 -232 -3 -284 -16 -318 -9 -22 -13 -50 -10
-62 9 -36 82 -108 108 -108 14 0 57 28 108 71 47 39 106 87 133 107 45 35 47
38 47 87 0 74 -11 123 -27 130 -9 3 -30 0 -49 -7 -64 -23 -64 -21 -64 297 0
358 16 329 -182 332 -78 1 -152 -1 -163 -4z"/>
<path d="M5642 2484 c-18 -13 -22 -25 -22 -74 0 -95 -20 -90 364 -90 350 0
356 -1 356 -46 0 -57 19 -54 -375 -54 -419 0 -395 5 -395 -90 0 -77 13 -90 90
-90 65 0 79 -10 60 -45 -14 -26 -17 -20 73 -143 41 -55 76 -92 86 -92 29 0
161 98 161 119 0 10 -21 44 -46 75 -70 85 -68 86 150 86 l186 0 6 -26 c12 -49
-5 -137 -32 -164 -24 -24 -29 -25 -138 -23 -143 3 -144 3 -120 -104 27 -126
13 -117 183 -110 159 8 201 16 252 50 59 40 81 99 88 244 l6 128 95 3 c118 4
130 12 130 92 0 80 -12 88 -130 92 l-95 3 0 45 0 45 83 5 c96 6 102 11 102 88
0 39 -5 57 -20 72 -19 19 -33 20 -548 20 -461 0 -530 -2 -550 -16z"/>
<path d="M7212 2308 c-5 -7 -42 -61 -81 -119 -40 -59 -112 -155 -161 -214 -55
-66 -90 -117 -90 -131 0 -27 131 -144 162 -144 11 0 34 15 51 33 60 63 183
224 261 339 98 145 98 150 -12 207 -80 43 -113 50 -130 29z"/>
<path d="M8124 2272 c-44 -30 -70 -55 -72 -69 -2 -14 37 -83 115 -201 65 -99
132 -202 148 -228 41 -68 58 -67 161 1 110 73 110 75 -2 231 -166 228 -239
314 -271 314 -5 0 -41 -21 -79 -48z"/>
<path d="M963 485 c-38 -16 -53 -42 -53 -90 0 -25 8 -43 25 -60 l24 -25 365 0
364 0 26 31 c44 51 26 127 -35 148 -50 17 -675 14 -716 -4z m75 -37 c30 -30 3
-98 -39 -98 -23 0 -59 34 -59 57 0 42 68 71 98 41z"/>
<path d="M6770 479 c-64 -27 -100 -85 -100 -162 0 -95 70 -167 162 -167 86 0
138 44 158 134 14 64 -2 125 -46 167 -29 28 -42 33 -91 36 -32 1 -69 -2 -83
-8z"/>
<path d="M1054 184 c-59 -29 -71 -98 -25 -145 l29 -29 262 0 c160 0 269 4 281
10 28 16 51 67 44 99 -3 16 -17 39 -31 52 -25 24 -28 24 -277 27 -212 2 -257
0 -283 -14z m64 -30 c26 -18 30 -65 7 -84 -19 -16 -61 -16 -80 0 -23 19 -19
66 7 84 28 20 38 20 66 0z"/>
</g>
</svg>
