<svg width="50" height="32" viewBox="0 0 50 32" fill="none" xmlns="http://www.w3.org/2000/svg">
<g id="Vector">
<path d="M18.5372 15.7233C18.5372 24.407 11.4976 31.4465 2.81389 31.4465C-5.86984 31.4465 8.31702 28.367 8.31702 15.7233C8.31702 3.07959 -5.86984 0 2.81389 0C11.4976 0 18.5372 7.03955 18.5372 15.7233Z" fill="black"/>
<path d="M19.5102 21.1366C20.0626 19.4316 20.3611 17.6123 20.3611 15.7233C20.3611 13.8342 20.0626 12.0149 19.5102 10.3099C21.7165 4.2932 27.4952 0 34.2767 0C42.9605 0 50 7.03955 50 15.7233C50 24.407 42.9605 31.4465 34.2767 31.4465C27.4953 31.4465 21.7165 27.1533 19.5102 21.1366Z" fill="black"/>
</g>
</svg>
