<svg width="117" height="32" viewBox="0 0 117 32" fill="none" xmlns="http://www.w3.org/2000/svg">
<g id="Vector">
<path d="M94.7876 1.98105C94.7876 3.00677 93.9561 3.83828 92.9303 3.83828C91.9046 3.83828 91.0731 3.00677 91.0731 1.98105C91.0731 0.955323 91.9046 0.12381 92.9303 0.12381C93.9561 0.12381 94.7876 0.955323 94.7876 1.98105Z" fill="black"/>
<path d="M98.4181 15.6038C98.4181 20.7324 94.2605 24.89 89.1319 24.89C84.0033 24.89 92.3821 23.0712 92.3821 15.6038C92.3821 8.1365 84.0033 6.31769 89.1319 6.31769C94.2605 6.31769 98.4181 10.4752 98.4181 15.6038Z" fill="black"/>
<path d="M98.9927 18.8009C99.319 17.794 99.4953 16.7195 99.4953 15.6038C99.4953 14.4882 99.319 13.4137 98.9927 12.4067C100.296 8.85325 103.709 6.31769 107.714 6.31769C112.842 6.31769 117 10.4752 117 15.6038C117 20.7324 112.842 24.89 107.714 24.89C103.709 24.89 100.296 22.3544 98.9927 18.8009Z" fill="black"/>
<path d="M0 0.35754H2.59442V22.6555H16.3378V24.8993H0V0.35754Z" fill="black"/>
<path d="M34.1637 6.45793V22.6555C34.1637 25.7875 33.4508 28.1015 32.0251 29.5973C30.5993 31.1166 28.449 31.8762 25.5741 31.8762C23.9614 31.8762 22.4304 31.6191 20.9813 31.1049C19.5555 30.6141 18.3985 29.9246 17.5104 29.0364L18.7725 27.1432C19.5672 27.9378 20.5489 28.5572 21.7175 29.0013C22.8862 29.4454 24.1367 29.6675 25.4689 29.6675C27.5959 29.6675 29.1619 29.1182 30.1669 28.0196C31.172 26.9445 31.6745 25.2616 31.6745 22.9711V20.8324C31.02 21.9076 30.1202 22.7373 28.9749 23.3216C27.853 23.906 26.5791 24.1981 25.1534 24.1981C22.746 24.1981 20.841 23.532 19.4387 22.1997C18.0596 20.8441 17.3701 18.8691 17.3701 16.2746V6.45793H19.8594V16.0292C19.8594 17.9692 20.3385 19.4417 21.2968 20.4467C22.2551 21.4518 23.6224 21.9543 25.3988 21.9543C27.3388 21.9543 28.8697 21.37 29.9916 20.2013C31.1135 19.0093 31.6745 17.3615 31.6745 15.2579V6.45793H34.1637Z" fill="black"/>
<path d="M46.2243 6.31769C47.9539 6.31769 49.5199 6.71503 50.9223 7.50972C52.3246 8.28103 53.4232 9.37957 54.2179 10.8053C55.0126 12.2311 55.4099 13.8555 55.4099 15.6786C55.4099 17.5251 55.0126 19.1612 54.2179 20.587C53.4232 22.0128 52.3246 23.123 50.9223 23.9177C49.5432 24.689 47.9772 25.0746 46.2243 25.0746C44.7284 25.0746 43.3727 24.7708 42.1573 24.1631C40.9653 23.532 39.9836 22.6205 39.2123 21.4284V31.7009H36.7231V6.45793H39.1071V10.1041C39.8551 8.88874 40.8368 7.95381 42.0522 7.29936C43.2909 6.64491 44.6816 6.31769 46.2243 6.31769ZM46.049 22.8659C47.3345 22.8659 48.5031 22.5737 49.5549 21.9894C50.6067 21.3817 51.4248 20.5286 52.0091 19.43C52.6168 18.3315 52.9207 17.081 52.9207 15.6786C52.9207 14.2762 52.6168 13.0375 52.0091 11.9623C51.4248 10.8638 50.6067 10.0106 49.5549 9.40294C48.5031 8.79524 47.3345 8.49139 46.049 8.49139C44.7401 8.49139 43.5597 8.79524 42.5079 9.40294C41.4795 10.0106 40.6615 10.8638 40.0538 11.9623C39.4694 13.0375 39.1773 14.2762 39.1773 15.6786C39.1773 17.081 39.4694 18.3315 40.0538 19.43C40.6615 20.5286 41.4795 21.3817 42.5079 21.9894C43.5597 22.5737 44.7401 22.8659 46.049 22.8659Z" fill="black"/>
<path d="M66.1451 22.8659C67.2903 22.8659 68.3421 22.6672 69.3004 22.2699C70.2821 21.8491 71.1118 21.2414 71.7897 20.4467L73.1921 22.0595C72.374 23.0412 71.3573 23.7891 70.1419 24.3033C68.9265 24.8175 67.5825 25.0746 66.11 25.0746C64.2168 25.0746 62.5339 24.6773 61.0614 23.8826C59.5889 23.0645 58.4436 21.9426 57.6255 20.5169C56.8075 19.0911 56.3985 17.4784 56.3985 15.6786C56.3985 13.8789 56.7841 12.2662 57.5554 10.8404C58.3501 9.41463 59.437 8.30441 60.816 7.50972C62.195 6.71503 63.761 6.31769 65.514 6.31769C67.1501 6.31769 68.6226 6.69166 69.9315 7.4396C71.2638 8.18754 72.3156 9.22765 73.0869 10.5599C73.8816 11.8922 74.3023 13.4114 74.349 15.1177L59.2032 18.0627C59.6707 19.5586 60.5121 20.7389 61.7275 21.6037C62.9663 22.4452 64.4388 22.8659 66.1451 22.8659ZM65.514 8.45633C64.2285 8.45633 63.0715 8.76018 62.0431 9.36789C61.038 9.95221 60.2433 10.782 59.659 11.8571C59.0981 12.9089 58.8176 14.1243 58.8176 15.5033C58.8176 15.8539 58.8293 16.111 58.8526 16.2746L71.8598 13.7503C71.5793 12.2077 70.8664 10.9456 69.7211 9.9639C68.5759 8.95886 67.1735 8.45633 65.514 8.45633Z" fill="black"/>
<path d="M78.8197 10.0691C79.404 8.8303 80.2688 7.89538 81.4141 7.2643C82.5828 6.63323 84.0202 6.31769 85.7264 6.31769V8.73681L85.1304 8.70175C83.1905 8.70175 81.6712 9.29777 80.5727 10.4898C79.4741 11.6818 78.9249 13.353 78.9249 15.5033V24.8993H76.4356V6.45793H78.8197V10.0691Z" fill="black"/>
</g>
</svg>
