<svg width="50" height="50" viewBox="0 0 50 50" fill="none" xmlns="http://www.w3.org/2000/svg">
<rect width="50" height="50" rx="10" fill="url(#paint0_linear_61_166)"/>
<path d="M30 18H27.5V20.5H30V18Z" fill="black"/>
<path d="M22.5 18H20V20.5H22.5V18Z" fill="black"/>
<path d="M37.5 30.5H31.25V28H32.5C33.1628 27.9992 33.7982 27.7356 34.2669 27.2669C34.7356 26.7983 34.9992 26.1628 35 25.5V20.5H37.5V18H35V15.5C34.9992 14.8372 34.7356 14.2017 34.2669 13.7331C33.7982 13.2644 33.1628 13.0008 32.5 13H30V8H27.5V13H22.5V8H20V13H17.5C16.8372 13.0008 16.2017 13.2644 15.7331 13.7331C15.2644 14.2017 15.0008 14.8372 15 15.5V18H12.5V20.5H15V25.5C15.0008 26.1628 15.2644 26.7983 15.7331 27.2669C16.2017 27.7356 16.8372 27.9992 17.5 28H18.75V30.5H12.5C11.8372 30.5008 11.2017 30.7644 10.7331 31.2331C10.2644 31.7017 10.0008 32.3372 10 33V43H12.5V33H37.5V43H40V33C39.9992 32.3372 39.7356 31.7017 39.2669 31.2331C38.7982 30.7644 38.1628 30.5008 37.5 30.5ZM17.5 15.5H32.5V25.5H17.5V15.5ZM21.25 28H28.75V30.5H21.25V28Z" fill="black"/>
<defs>
<linearGradient id="paint0_linear_61_166" x1="0" y1="0" x2="54.3755" y2="5.32562" gradientUnits="userSpaceOnUse">
<stop stop-color="#72DDFF"/>
<stop offset="1" stop-color="#6CFFC1"/>
</linearGradient>
</defs>
</svg>
